<svg xmlns="http://www.w3.org/2000/svg" width="360" height="135.097" viewBox="0 0 360 135.097">
  <g id="screen_bg_sts" transform="translate(-1290 284.295)">
    <path id="Subtraction_15" d="M0,167.8H0V32.705H360V127.8c-4.7,1.7-10.485,2.526-17.672,2.526a169.319,169.319,0,0,1-25.229-2.313c-9.231-1.406-19.132-3.3-29.614-5.3l-.1-.019c-2.176-.416-4.426-.846-6.667-1.27-23.767-4.5-49.012-8.9-73.416-8.9-25.18,0-45.526,4.718-62.2,14.425a283.577,283.577,0,0,1-51.547,23.192,345.812,345.812,0,0,1-46.672,12.178c-14.32,2.7-26.306,4.053-33.839,4.709C4.947,167.725.05,167.8,0,167.8Z" transform="translate(1290 -317)" fill="#efb758" opacity="0.91"/>
    <path id="Subtraction_17" d="M75,152h0V34H435v77.992c-4.7,1.7-10.482,2.526-17.671,2.526a169.266,169.266,0,0,1-25.229-2.313c-9.261-1.41-19.146-3.3-29.611-5.3l-.015,0c-2.65-.507-4.795-.915-6.751-1.286-23.768-4.5-49.016-8.9-73.417-8.9-25.179,0-45.525,4.718-62.2,14.425a283.626,283.626,0,0,1-51.547,23.191,345.7,345.7,0,0,1-46.671,12.179c-14.324,2.705-26.308,4.054-33.839,4.709-7.914.688-12.837.779-13.043.782Z" transform="translate(1215 -318)" fill="#f9daa4" opacity="0.91"/>
  </g>
</svg>
